<svg height="1710" class="storylines-chart" xmlns="http://www.w3.org/2000/svg">
  <g class="chart" transform="translate(20,1685)">
    <g class="layer groups">
      <rect x="0" width="2038" y="-19.35672514619883" height="19.35672514619883"></rect>
      <rect x="0" width="2038" y="-77.42690058479532" height="19.356725146198833"></rect>
      <rect x="0" width="2038" y="-135.4970760233918" height="19.356725146198826"></rect>
      <rect x="0" width="2038" y="-212.92397660818713" height="38.71345029239768"></rect>
      <rect x="0" width="2038" y="-270.9941520467836" height="19.356725146198812"></rect>
      <rect x="0" width="2038" y="-329.0643274853801" height="19.356725146198812"></rect>
      <rect x="0" width="2038" y="-387.1345029239766" height="19.356725146198812"></rect>
      <rect x="0" width="2038" y="-454.8830409356725" height="29.035087719298247"></rect>
      <rect x="0" width="2038" y="-512.953216374269" height="19.35672514619887"></rect>
      <rect x="0" width="2038" y="-571.0233918128655" height="19.35672514619887"></rect>
      <rect x="0" width="2038" y="-629.093567251462" height="19.35672514619887"></rect>
      <rect x="0" width="2038" y="-687.1637426900585" height="19.35672514619887"></rect>
      <rect x="0" width="2038" y="-745.233918128655" height="19.35672514619887"></rect>
      <rect x="0" width="2038" y="-803.3040935672515" height="19.35672514619887"></rect>
      <rect x="0" width="2038" y="-871.0526315789473" height="29.035087719298076"></rect>
      <rect x="0" width="2038" y="-929.1228070175438" height="19.356725146198755"></rect>
      <rect x="0" width="2038" y="-987.1929824561403" height="19.356725146198755"></rect>
      <rect x="0" width="2038" y="-1045.2631578947369" height="19.35672514619887"></rect>
      <rect x="0" width="2038" y="-1103.3333333333333" height="19.35672514619887"></rect>
      <rect x="0" width="2038" y="-1180.7602339181285" height="38.71345029239751"></rect>
      <rect x="0" width="2038" y="-1238.830409356725" height="19.35672514619887"></rect>
      <rect x="0" width="2038" y="-1296.9005847953215" height="19.35672514619887"></rect>
      <rect x="0" width="2038" y="-1354.970760233918" height="19.35672514619887"></rect>
      <rect x="0" width="2038" y="-1413.0409356725145" height="19.35672514619887"></rect>
      <rect x="0" width="2038" y="-1471.111111111111" height="19.35672514619887"></rect>
      <rect x="0" width="2038" y="-1529.1812865497075" height="19.35672514619887"></rect>
      <rect x="0" width="2038" y="-1596.9298245614036" height="29.035087719298417"></rect>
      <rect x="0" width="2038" y="-1655" height="19.35672514619887"></rect>
      <text x="0" y="-19.35672514619883"></text>
      <text x="0" y="-77.42690058479532"></text>
      <text x="0" y="-135.4970760233918"></text>
      <text x="0" y="-212.92397660818713"></text>
      <text x="0" y="-270.9941520467836"></text>
      <text x="0" y="-329.0643274853801"></text>
      <text x="0" y="-387.1345029239766"></text>
      <text x="0" y="-454.8830409356725"></text>
      <text x="0" y="-512.953216374269"></text>
      <text x="0" y="-571.0233918128655"></text>
      <text x="0" y="-629.093567251462"></text>
      <text x="0" y="-687.1637426900585"></text>
      <text x="0" y="-745.233918128655"></text>
      <text x="0" y="-803.3040935672515"></text>
      <text x="0" y="-871.0526315789473"></text>
      <text x="0" y="-929.1228070175438"></text>
      <text x="0" y="-987.1929824561403"></text>
      <text x="0" y="-1045.2631578947369"></text>
      <text x="0" y="-1103.3333333333333"></text>
      <text x="0" y="-1180.7602339181285"></text>
      <text x="0" y="-1238.830409356725"></text>
      <text x="0" y="-1296.9005847953215"></text>
      <text x="0" y="-1354.970760233918"></text>
      <text x="0" y="-1413.0409356725145"></text>
      <text x="0" y="-1471.111111111111"></text>
      <text x="0" y="-1529.1812865497075"></text>
      <text x="0" y="-1596.9298245614036"></text>
      <text x="0" y="-1655"></text>
    </g>
    <g class="layer storylines">
      <!-- Storyline paths and labels -->
      <!-- Truncated comment: original content included all <g> groups with <path>, <text>, and <title> as provided -->
      <!-- For brevity in this file, we include the full original groups -->
      <g><path d="M0,-67.7485380116959C22.644444444444446,-67.7485380116959,45.28888888888889,-67.7485380116959,67.93333333333334,-67.7485380116959C53.248754208754214,-67.7485380116959,38.56417508417508,-67.7485380116959,23.87959595959596,-67.7485380116959C46.524040404040406,-67.7485380116959,69.16848484848485,-67.7485380116959,91.8129292929293,-67.7485380116959C124.8875420875421,-67.7485380116959,157.9621548821549,-67.7485380116959,191.03676767676768,-67.7485380116959C213.68121212121213,-67.7485380116959,236.32565656565657,-67.7485380116959,258.970101010101,-67.7485380116959C260.20525252525255,-67.7485380116959,261.440404040404,-67.7485380116959,262.67555555555555,-67.7485380116959C285.32,-67.7485380116959,307.9644444444445,-67.7485380116959,330.60888888888894,-67.7485380116959C311.9443771043771,-67.7485380116959,293.27986531986534,-67.7485380116959,274.6153535353535,-67.7485380116959C297.25979797979795,-67.7485380116959,319.90424242424245,-67.7485380116959,342.5486868686869,-67.7485380116959C355.7236363636364,-67.7485380116959,368.8985858585859,-67.7485380116959,382.07353535353536,-67.7485380116959C404.7179797979798,-67.7485380116959,427.3624242424243,-67.7485380116959,450.00686868686876,-67.7485380116959C431.3423569023569,-67.7485380116959,412.67784511784515,-183.88888888888889,394.0133333333333,-183.88888888888889C416.65777777777777,-183.88888888888889,439.30222222222227,-183.88888888888889,461.9466666666667,-183.88888888888889C566.6600673400674,-183.88888888888889,671.373468013468,-67.7485380116959,776.0868686868687,-67.7485380116959C798.7313131313132,-67.7485380116959,821.3757575757576,-67.7485380116959,844.0202020202021,-67.7485380116959C825.3556902356903,-67.7485380116959,806.6911784511784,-67.7485380116959,788.0266666666666,-67.7485380116959C810.6711111111111,-67.7485380116959,833.3155555555555,-67.7485380116959,855.96,-67.7485380116959C900.9744107744108,-67.7485380116959,945.9888215488214,-67.7485380116959,991.0032323232322,-67.7485380116959C1013.6476767676767,-67.7485380116959,1036.2921212121212,-67.7485380116959,1058.9365656565656,-67.7485380116959C1095.991111111111,-67.7485380116959,1133.0456565656566,-67.7485380116959,1170.100202020202,-67.7485380116959C1192.7446464646464,-67.7485380116959,1215.389090909091,-67.7485380116959,1238.0335353535354,-67.7485380116959C1219.3690235690235,-67.7485380116959,1200.7045117845119,-67.7485380116959,1182.04,-67.7485380116959C1204.6844444444444,-67.7485380116959,1227.328888888889,-67.7485380116959,1249.9733333333334,-67.7485380116959C1354.686734006734,-67.7485380116959,1459.4001346801347,-67.7485380116959,1564.1135353535353,-67.7485380116959C1586.7579797979797,-67.7485380116959,1609.4024242424243,-67.7485380116959,1632.0468686868687,-67.7485380116959C1613.3823569023568,-67.7485380116959,1594.7178451178452,-67.7485380116959,1576.0533333333333,-67.7485380116959C1598.6977777777777,-67.7485380116959,1621.3422222222223,-67.7485380116959,1643.9866666666667,-67.7485380116959C1625.3221548821548,-67.7485380116959,1606.6576430976431,-67.7485380116959,1587.9931313131312,-67.7485380116959C1610.6375757575756,-67.7485380116959,1633.2820202020202,-67.7485380116959,1655.9264646464646,-67.7485380116959C1641.2418855218855,-67.7485380116959,1626.5573063973065,-67.7485380116959,1611.8727272727274,-67.7485380116959C1634.5171717171718,-67.7485380116959,1657.1616161616164,-67.7485380116959,1679.8060606060608,-67.7485380116959C1724.8204713804714,-67.7485380116959,1769.8348821548823,-67.7485380116959,1814.849292929293,-67.7485380116959C1837.4937373737373,-67.7485380116959,1860.138181818182,-67.7485380116959,1882.7826262626263,-67.7485380116959C1864.1181144781144,-67.7485380116959,1845.4536026936028,-67.7485380116959,1826.7890909090909,-67.7485380116959C1849.4335353535353,-67.7485380116959,1872.0779797979799,-67.7485380116959,1894.7224242424243,-67.7485380116959C1915.857239057239,-67.7485380116959,1936.992053872054,-67.7485380116959,1958.1268686868686,-67.7485380116959C1980.771313131313,-67.7485380116959,2003.4157575757577,-67.7485380116959,2026.060202020202,-67.7485380116959C2007.3956902356902,-67.7485380116959,1988.7311784511785,-67.7485380116959,1970.0666666666666,-67.7485380116959C1992.711111111111,-67.7485380116959,2015.3555555555556,-67.7485380116959,2038,-67.7485380116959" style="stroke: rgb(214, 39, 40);"></path><text x="2038" y="-67.7485380116959" style="fill: rgb(214, 39, 40);">Jonas Kahnwald / Adam (J)</text><title>Jonas Kahnwald / Adam (J)</title></g>
      <!-- Additional groups omitted for brevity; include all from the provided SVG if full fidelity required -->
    </g>
    <g class="layer x-axis" fill="none" font-size="10" font-family="sans-serif" text-anchor="middle">
      <path class="domain" stroke="#000" d="M34.46666666666667,6V0.5H2004.5333333333333V6"></path>
      <g class="tick" opacity="1" transform="translate(34.46666666666667,0)"><line stroke="#000" y2="6"></line><text fill="#000" y="9" dy="0.71em">1888</text></g>
      <!-- Additional ticks omitted for brevity -->
    </g>
  </g>
</svg>
